<?xml version="1.0" encoding="utf-8"?>
<!-- Generator: Adobe Illustrator 25.2.0, SVG Export Plug-In . SVG Version: 6.00 Build 0)  -->
<svg version="1.1" id="Layer_1" xmlns="http://www.w3.org/2000/svg" xmlns:xlink="http://www.w3.org/1999/xlink" x="0px" y="0px"
	 viewBox="0 0 364.08 400" style="enable-background:new 0 0 364.08 400;" xml:space="preserve">
<style type="text/css">
	.st0{fill:#0071BC;}
</style>
<path class="st0" d="M348.57,68.92L348.57,68.92c1.53,1.12,3.57-0.51,2.79-2.23c-10.43-23.03-7.78-56.94-7.04-64.42
	c0.09-0.93-0.53-1.8-1.44-2c-2.89-0.65-6.11-0.05-9.17,1.1c-6.98,2.6-12.68,7.83-16.42,14.28c-21.41,36.95-38.58,31.67-38.58,31.67
	c-23.73-3.32-49.75-15.48-51.44-16.28c-0.07-0.03-0.13-0.05-0.19-0.08c-29.23-10.12-40.21-2.39-43.67,1.6
	c-0.73,0.84-2.02,0.84-2.75,0c-3.46-3.99-14.44-11.72-43.67-1.6c-0.07,0.02-0.13,0.05-0.19,0.08c-1.69,0.8-27.72,12.96-51.44,16.28
	c0,0-17.17,5.28-38.58-31.67C43.04,9.2,37.35,3.97,30.36,1.37c-3.06-1.14-6.28-1.75-9.17-1.1c-0.92,0.21-1.54,1.07-1.44,2
	c0.74,7.47,3.38,41.38-7.04,64.42c-0.78,1.72,1.26,3.35,2.79,2.23l0,0c1.54-1.13,3.58,0.52,2.78,2.26
	C10.4,88.23-8.1,134.74,3.99,173.54c0.47,1.5,2.47,1.81,3.33,0.49c3.28-5.03,10.24-14.24,18.53-16.67c1.49-0.44,2.81,1.06,2.23,2.49
	c-6.68,16.53-33,95.93,50.25,152.36c8.37,5.67,12.68,16.04,9.72,25.7c-0.86,2.83-2.35,5.71-4.71,8.51
	c-0.97,1.15-0.32,2.92,1.17,3.07c8,0.81,27.2,0.33,34.04-21.37c0.58-1.83,3.2-1.75,3.59,0.13c3.59,17.57,16.04,51.98,59.11,71.58
	c0.5,0.23,1.08,0.23,1.58,0c43.06-19.6,55.51-54.01,59.11-71.58c0.38-1.88,3.01-1.96,3.59-0.13c6.85,21.7,26.04,22.18,34.04,21.37
	c1.5-0.15,2.14-1.92,1.17-3.07c-2.36-2.8-3.84-5.69-4.71-8.51c-2.96-9.67,1.35-20.03,9.72-25.7C369,255.78,342.68,176.38,336,159.85
	c-0.58-1.44,0.75-2.93,2.23-2.49c8.29,2.44,15.25,11.64,18.53,16.67c0.86,1.32,2.86,1.01,3.33-0.49
	c12.08-38.8-6.41-85.31-14.29-102.36C344.99,69.44,347.03,67.79,348.57,68.92z M231.02,111.95c-11.68,3-24.27-1.53-30.41-11.91
	c-0.29-0.5-1.19-3.16-1.52-3.66c-4.91-7.42-16.97-6.87-17.07-6.86c-0.09,0-12.72-0.46-17.07,6.86c-0.31,0.52-1.23,3.16-1.52,3.66
	c-6.14,10.38-18.72,14.91-30.41,11.91c-22.7-5.82-26.85-22.85-27.61-28.91c-0.1-0.83,0.82-1.41,1.52-0.96
	c2.46,1.59,5.85,3.18,8.59,3.63c8.19,1.35,16.9,0.35,24.03-3.91c24.1-12.33,40.83-11.44,42.36-11.33c0.08,0.01,0.14,0.01,0.23,0
	c1.52-0.11,18.26-1,42.36,11.33c7.13,4.25,15.84,5.25,24.03,3.91c2.74-0.45,6.13-2.04,8.59-3.63c0.7-0.45,1.62,0.13,1.52,0.96
	C257.87,89.1,253.72,106.13,231.02,111.95z"/>
</svg>
